<svg xmlns="http://www.w3.org/2000/svg" viewBox="0 0 1024 1024"><path fill="#57E2F3" d="M680.926 925.438c90.967-37.178 166.992-103.448 216.386-187.383L461.2 701.229zM459.002 701.053l2.11.176-1.143-1.143z"/><path fill="#5AEC43" d="M346.941 926.756c51.153 20.39 106.963 31.64 165.323 31.64 43.506 0 85.517-6.24 125.244-17.841L348.61 601.648zm.264-326.777 1.406 1.67v-1.67z"/><path fill="#B9ED3E" d="m342.459 440.281-.176 2.11 1.143-1.143zM100.232 684.09c40.518 96.943 114.346 176.484 207.07 224.472l34.981-466.26-242.05 241.788z"/><path fill="#F1DC3E" d="m445.818 328.045-1.67 1.406 1.67-.088zm-342.685 4.922c-23.994 54.756-37.266 115.312-37.266 178.945 0 46.23 7.031 90.791 20.04 132.715l358.33-315.176z"/><path fill="#F1B448" d="m600.77 324.793-2.11-.176 1.143 1.143zM364.52 90.564C262.918 126.16 178.104 197.44 125.105 289.461l473.467 35.156z"/><path fill="#F37D50" d="m738.8 412.3-1.6-1.9v1.9zm-27.904-300.29c-59.853-29.795-127.265-46.494-198.632-46.494-33.926 0-66.973 3.779-98.702 10.986L709.93 422.791z"/><path fill="#6D61F8" d="M934.754 367.42c-32.608-95.361-96.592-176.133-179.56-230.098l-38.848 442.793zM716.082 582.225l.176-2.11-1.143 1.143z"/><path fill="#589EF7" d="M920.34 693.23c24.61-55.37 38.32-116.718 38.32-181.23 0-38.145-4.746-75.146-13.799-110.479l-332.49 297.51zm-309.55 7.207 1.581-1.406h-1.582z"/></svg>