<svg xmlns="http://www.w3.org/2000/svg" viewBox="0 0 1110 1024"><path fill="#F18700" d="m1038.271 573.55-540.35-310.66V86.004l-39.44-22.668L62.198 292.667v176.888L62 540.312v88.436l49.447 28.434 48.874-28.434.092-31.858 432.076 248.407v86.942l49.447 28.426 48.874-28.426.252-87.132 248.636-143.878v30.836l49.447 28.427 48.874-28.427.252-88.444-.198-.114z"/><path fill="#A66206" d="m160.573 540.304-.252 88.444-48.874 28.434v-88.444z"/><path fill="#D07400" d="M111.447 568.738v88.444L62 628.748v-88.436zm49.126-28.434-49.119 28.434L62 540.312l49.126-28.434z"/><path fill="#A66206" d="m691.062 843.787-.252 88.452-48.874 28.426v-88.444z"/><path fill="#D07400" d="M641.936 872.221v88.444l-49.447-28.426v-88.444zm49.126-28.434-49.119 28.434-49.454-28.426 49.126-28.434z"/><path fill="#A66206" d="m1038.271 643.621-.252 88.444-48.874 28.427v-88.445z"/><path fill="#D07400" d="M989.145 672.047v88.445l-49.447-28.427v-88.444z"/><path fill="#D07400" d="m1038.271 643.621-49.126 28.426-49.447-28.426 49.119-28.426z"/><path fill="#A66206" d="m1038.271 573.55-.206 70.75-396.29 229.332.199-70.757z"/><path fill="#D07400" d="m641.974 802.875-.199 70.757L62 540.312l.198-70.757z"/><path fill="#F18700" d="M1038.271 573.55 641.974 802.876l-579.76-333.32 396.282-229.332z"/><path fill="#A66206" d="M497.92 86.003V262.89L101.615 492.215v-176.88z"/><path fill="#D07400" d="M101.623 315.335v176.88l-39.417-22.66V292.667z"/><path fill="#F18700" d="M497.92 86.003 101.615 315.335l-39.41-22.668L458.482 63.335z"/><path fill="#E0E0E2" d="M1004.285 496.792c.549-6.293-3.326-12.7-11.685-17.505l-460.342-264.66c-15.636-8.985-40.905-8.985-56.433 0L152.313 401.841c-7.742 4.477-11.601 10.342-11.594 16.215v-.061l-.205 70.757c-.016 5.933 3.912 11.867 11.783 16.398L612.64 769.797c15.635 8.984 40.896 8.992 56.44 0L992.586 582.58c7.718-4.462 11.578-10.304 11.593-16.154l.206-70.757c0 .374-.061.74-.1 1.114z"/><path fill="#ACABB1" d="m140.514 488.753.198-70.757c-.015 5.926 3.913 11.868 11.784 16.39l-.206 70.757c-7.864-4.523-11.792-10.457-11.776-16.39"/><path fill="#898890" d="m1004.384 495.678-.206 70.757c-.015 5.85-3.875 11.7-11.593 16.162l.206-70.757c7.71-4.462 11.578-10.304 11.593-16.162"/><path fill="#ACABB1" d="m992.79 511.84-.205 70.749-323.512 187.215.206-70.749z"/><path fill="#C6C5CB" d="m612.838 699.047-.198 70.757-460.35-264.66.206-70.758z"/><path fill="#D8D8DA" d="m669.271 699.055-.198 70.757c-15.537 8.992-40.798 8.985-56.433-.008l.206-70.757c15.635 8.993 40.896 9 56.433 0z"/><path fill="#E0E0E2" d="M992.6 479.28c15.636 9 15.72 23.567.19 32.56L669.28 699.047c-15.537 9-40.805 8.993-56.44 0l-460.343-264.66c-15.636-8.985-15.72-23.553-.183-32.545l323.512-187.223c15.528-8.985 40.797-8.985 56.433 0z"/></svg>