<svg xmlns="http://www.w3.org/2000/svg" viewBox="0 0 1077 1024"><path fill="#1382F0" d="M228.678 931.821c-70.143 0-127.14-55.021-127.14-122.754v-528.1c0-67.721 56.997-122.765 127.15-122.765H847.98c71.241 0 128.228 55.033 128.228 122.766V807.99c0 68.799-56.987 123.82-128.228 123.82H228.678z"/><path fill="#FFF" d="M346.914 568.176H301.25a28.155 28.155 0 0 1-27.91-27.91v-45.674a28.155 28.155 0 0 1 27.91-27.9h46.506a28.155 28.155 0 0 1 27.91 27.9v45.674c-.843 15.21-13.533 27.899-28.753 27.899m398.305 0h-46.517a28.155 28.155 0 0 1-27.9-27.9v-45.673a28.155 28.155 0 0 1 27.911-27.9h46.517a28.155 28.155 0 0 1 27.9 27.9v45.674c-.844 15.21-12.69 27.899-27.91 27.899m-199.581 0h-46.517a28.155 28.155 0 0 1-27.9-27.9v-45.673a28.155 28.155 0 0 1 27.91-27.9h46.518a28.155 28.155 0 0 1 27.9 27.9v45.674a28.155 28.155 0 0 1-27.911 27.899M346.914 736.46H301.25a28.155 28.155 0 0 1-27.91-27.91v-45.663a28.155 28.155 0 0 1 27.91-27.91h46.506a28.155 28.155 0 0 1 27.91 27.91v45.662c-.843 15.221-13.533 27.91-28.753 27.91m198.725 0h-46.517a28.155 28.155 0 0 1-27.9-27.91v-45.662a28.155 28.155 0 0 1 27.91-27.91h46.518a28.155 28.155 0 0 1 27.9 27.91v45.662a28.155 28.155 0 0 1-27.911 27.91m199.58 0h-46.517a28.155 28.155 0 0 1-27.9-27.91v-45.662a28.155 28.155 0 0 1 27.911-27.91h46.517a28.155 28.155 0 0 1 27.9 27.91v45.662c-.844 15.221-12.69 27.91-27.91 27.91"/><path fill="#DBC346" d="M99.972 400.725h877.811v-153.04c0-61.317-49.714-111.02-111.02-111.02h-655.77c-61.306 0-111.02 49.703-111.02 111.02v153.04z"/><path fill="#61A68B" d="M99.972 400.725h877.811V360.98H99.973zM368.896 229.01a43.309 43.309 0 0 1-43.12-43.13v-48.205c-.855-23.68 18.584-43.11 43.12-43.11a43.309 43.309 0 0 1 43.13 43.12v47.362c0 24.524-19.45 43.964-43.13 43.964m339.964 0a43.309 43.309 0 0 1-43.131-43.12v-48.216c-.855-23.68 18.607-43.11 43.131-43.11a43.309 43.309 0 0 1 43.131 43.12v47.362c0 24.524-19.45 43.964-43.13 43.964"/><path fill="#85B1B8" d="M531.262 546.16c-3.375 0-7.605-1.698-10.147-4.23l-31.286-31.296c-5.917-5.917-5.917-14.377 0-20.294 5.918-5.917 14.377-5.917 20.295 0l21.138 21.138 82.876-82.854c5.929-5.928 14.377-5.928 20.306 0 5.917 5.918 5.917 14.366 0 20.295l-93.035 93.023c-2.531 3.375-5.917 4.219-10.147 4.219"/></svg>