<svg xmlns="http://www.w3.org/2000/svg" viewBox="0 0 1024 1024"><path fill="#885732" d="M776.792 953.32a158.875 158.875 0 1 1 158.875-158.875A158.875 158.875 0 0 1 776.792 953.32zm88.264-229.486h-123.57v-35.306l-70.61 52.958 70.61 52.959v-35.306h123.57a17.653 17.653 0 0 0 0-35.305zm-52.958 70.61v35.306h-123.57a17.653 17.653 0 0 0 0 35.306h123.57v35.305l70.61-52.958z"/><path fill="#885732" d="M776.792 600.264a193.227 193.227 0 0 0-107.682 32.658h-13.363q2.26-4.943 3.671-8.615l-9.885-2.118a70.258 70.258 0 0 1-15.888 24.996l8.333 5.296a91.283 91.283 0 0 0 8.614-10.733h6.532c-3.53 2.79-7.061 5.737-10.327 8.826h-2.207v2.066c-1.889 1.765-3.866 3.442-5.684 5.296H605.56v7.467h26.479c-2.083 2.33-4.201 4.625-6.16 7.06h-13.77v19.419a193.616 193.616 0 0 0-13.08 24.555c.352-.953.723-1.765 1.076-2.754l-8.826-3.53a345.147 345.147 0 0 1-16.665 36.717l9.462 4.096c3.672-7.061 7.15-15.076 10.592-23.443a192.68 192.68 0 0 0 19.418 172.82H194.25a35.306 35.306 0 0 1-35.306-35.305v-741.4a35.306 35.306 0 0 1 35.306-35.305h600.195a35.306 35.306 0 0 1 35.305 35.306v484.127a193.934 193.934 0 0 0-52.958-7.502zm-175.557 71.07a135.362 135.362 0 0 0-18.624-15.11l-6.778 6.496a116.88 116.88 0 0 1 18.782 15.252zm-9.32 32.058 6.637-6.638a118.574 118.574 0 0 0-18.5-15.676l-6.78 6.497a105.475 105.475 0 0 1 18.642 15.817zm-148.76 47.027h10.167v-9.039h81.91v9.039h10.308V639.983H443.154v110.436zM353.247 622.33l-10.874 1.765a142.44 142.44 0 0 1 8.191 16.523h-46.038v44.132a104.84 104.84 0 0 1-17.512 61.785l7.485 6.779a117.92 117.92 0 0 0 20.053-65.316H405.5v-47.45h-44.627q-3.813-10.168-7.626-18.218zm247.016-286.858a105.917 105.917 0 1 0-164.33 88.264h-12.198l-35.306 52.958h211.834l-35.306-52.958H552.76a105.74 105.74 0 0 0 47.504-88.264zm33.028 297.45h-35.446q2.118-4.237 4.236-8.827l-9.744-2.118a71.317 71.317 0 0 1-18.783 26.48l8.827 5.507a98.061 98.061 0 0 0 10.309-12.357h12.145a63.55 63.55 0 0 1 7.202 12.004l8.827-3.248a69.887 69.887 0 0 0-5.65-8.827h18.219v-8.826zM494.347 406.083a70.611 70.611 0 1 1 70.611-70.61 70.611 70.611 0 0 1-70.61 70.61zm11.633-101.38-11.633-22.19-11.633 22.19-23.672 4.784 16.47 18.5-2.984 25.138 21.82-10.768 21.818 10.768-2.983-25.138 16.47-18.5zM314.553 650.574h80.638v27.539h-80.638v-27.539zm138.68-.706h81.91v81.627h-81.91v-81.627z"/></svg>