<svg xmlns="http://www.w3.org/2000/svg" width="200" height="200" class="icon" viewBox="0 0 1200 1024"><path fill="#FB8A13" d="M1003.745 507.124H712.674a50.26 50.26 0 0 0-50.262 50.262v393.096a50.26 50.26 0 0 0 50.262 50.262h289.946a50.26 50.26 0 0 0 50.262-50.262V557.386a50.26 50.26 0 0 0-50.262-50.262zm24.756 412.6a50.26 50.26 0 0 1-50.262 50.263H742.306a50.26 50.26 0 0 1-50.262-50.262V580.267a50.26 50.26 0 0 1 50.262-50.263H978.24a50.26 50.26 0 0 1 50.262 50.263zm0 0"/><path fill="#FB8A13" d="M975.238 739.305a272 272 0 0 1-71.267-29.257 480.5 480.5 0 0 0-68.642-37.509 154.16 154.16 0 0 0-141.034 17.254h-3.751v234.058a50.637 50.637 0 0 0 51.012 50.262h239.308a50.637 50.637 0 0 0 51.013-50.262V747.558a318.5 318.5 0 0 1-56.639-8.253m21.38 284.32H721.301a4.876 4.876 0 0 1-4.876-4.876V985.74a4.876 4.876 0 0 1 4.876-4.877h274.942a4.876 4.876 0 0 1 4.876 4.877v33.008a4.876 4.876 0 0 1-4.876 4.876zM591.52 780.19a86.27 86.27 0 0 1-42.385-75.018v-71.267a32.26 32.26 0 0 1 32.258-32.258h93.773v225.055zm-10.127-156.038a10.503 10.503 0 0 0-10.878 10.878v71.267a64.89 64.89 0 0 0 31.883 55.514l50.637 29.632v-167.29zm0 0"/><path fill="#005087" d="M504.498 615.15c0-54.763 58.514-49.887 58.514-49.887h77.27V533.38a71.267 71.267 0 0 1 79.894-72.017H945.23v-118.53l83.645 87.397 171.417-172.917L942.98 0h-85.52a279.07 279.07 0 0 1-257.313 171.417A272.32 272.32 0 0 1 342.834 0h-85.521L0 257.313 171.417 430.23l85.896-85.896V858.96h327.08c-88.897-48.012-79.145-184.545-78.02-242.31zm0 0"/></svg>