<svg xmlns="http://www.w3.org/2000/svg" viewBox="0 0 1024 1024"><path fill="#1296db" d="M62 512a450 450 0 1 0 900 0 450 450 0 1 0-900 0Z"/><path fill="#FFF" d="M787.2 543.616a168.288 168.288 0 0 0-29.728-47.136 37.632 37.632 0 0 0 5.408-18.848 49.216 49.216 0 0 0-21.76-37.312 133.728 133.728 0 0 0-267.008 0 49.216 49.216 0 0 0-21.76 37.312 37.984 37.984 0 0 0 5.408 18.848 167.808 167.808 0 0 0-29.696 47.136 118.4 118.4 0 0 0-7.936 78.368c6.016 16.608 16.608 15.136 25.28-.224a457.6 457.6 0 0 1 9.376-15.36 145.152 145.152 0 0 0 31.328 53.568 62.976 62.976 0 0 0-20.48 9.376 25.344 25.344 0 0 0-3.2 41.856 150.4 150.4 0 0 0 130.688.288 166.336 166.336 0 0 0 29.888-.032 150.4 150.4 0 0 0 130.784-.256 25.376 25.376 0 0 0-3.2-41.856 63.392 63.392 0 0 0-21.312-9.6 144.928 144.928 0 0 0 31.072-53.312c3.776 5.952 7.136 11.424 9.376 15.36 8.672 15.328 19.2 16.832 25.28.224a118.4 118.4 0 0 0-7.936-78.368zm0 0"/><path fill="#FFF" d="M424.48 664.096a32 32 0 0 1-26.688-24.512 142.624 142.624 0 0 1 8.608-96.576 183.616 183.616 0 0 1 27.424-46.56 54.784 54.784 0 0 1-2.784-17.12 65.92 65.92 0 0 1 24.224-49.12 170.016 170.016 0 0 1 50.912-99.2 161.696 161.696 0 0 1 31.68-23.456 139.456 139.456 0 0 0-100.896-43.52 145.728 145.728 0 0 0-142.368 134.112 52.512 52.512 0 0 0-23.2 39.776 40.288 40.288 0 0 0 5.76 20.128 178.848 178.848 0 0 0-31.68 50.24 126.304 126.304 0 0 0-8.448 83.584c6.4 17.696 17.696 16 26.944-.256 2.4-4.192 5.984-10.016 9.984-16.352a156.032 156.032 0 0 0 33.408 57.12 65.856 65.856 0 0 0-21.792 9.984 27.04 27.04 0 0 0-3.392 44.64 160.672 160.672 0 0 0 139.392.32c4.992.416 10.016.704 15.168.704a60.8 60.8 0 0 1 14.912-18.112 40.992 40.992 0 0 1 4.448-3.2q-4.128-6.048-7.744-12.416a29.664 29.664 0 0 1-23.936 10.08zm0 0"/></svg>