<svg xmlns="http://www.w3.org/2000/svg" xml:space="preserve" width="1024" height="1024"><defs><filter id="b" width="111.599" height="142.017" x="482.605" y="68.037" filterUnits="userSpaceOnUse"><feDropShadow dx="-5.28" dy="8.492" flood-color="#000" flood-opacity=".333" in="SourceGraphic" result="Shadow" stdDeviation="10"/></filter><filter id="c" width="245.754" height="326.007" x="96.106" y="282.959" filterUnits="userSpaceOnUse"><feDropShadow dx="5.906" dy="8.069" flood-color="#000" flood-opacity=".333" in="SourceGraphic" result="Shadow" stdDeviation="10"/></filter><filter id="d" width="113.26" height="260.383" x="418.12" y="495.799" filterUnits="userSpaceOnUse"><feDropShadow dx="-5.76" dy="8.175" flood-color="#000" flood-opacity=".333" in="SourceGraphic" result="Shadow" stdDeviation="10"/></filter><filter id="e" width="115.208" height="362.136" x="252.656" y="415.569" filterUnits="userSpaceOnUse"><feDropShadow dx="-.694" dy=".387" flood-color="#000" flood-opacity=".333" in="SourceGraphic" result="Shadow" stdDeviation="10"/></filter><filter id="f" width="446.837" height="109.771" x="95.337" y="496.821" filterUnits="userSpaceOnUse"><feDropShadow dx="5.84" dy="8.117" flood-color="#000" flood-opacity=".333" in="SourceGraphic" result="Shadow" stdDeviation="10"/></filter><filter id="g" width="200.677" height="135.121" x="177.703" y="638.013" filterUnits="userSpaceOnUse"><feDropShadow dx="9.122" dy="-4.099" flood-color="#000" flood-opacity=".333" in="SourceGraphic" result="Shadow" stdDeviation="10"/></filter><filter id="h" width="110.293" height="384.859" x="518.767" y="406.248" filterUnits="userSpaceOnUse"><feDropShadow dx="5.906" dy="8.069" flood-color="#000" flood-opacity=".333" in="SourceGraphic" result="Shadow" stdDeviation="10"/></filter><filter id="i" width="191.134" height="198.186" x="436.194" y="726.685" filterUnits="userSpaceOnUse"><feDropShadow dx="5.906" dy="8.069" flood-color="#000" flood-opacity=".333" in="SourceGraphic" result="Shadow" stdDeviation="10"/></filter><filter id="j" width="111.021" height="349.18" x="592.402" y="529.998" filterUnits="userSpaceOnUse"><feDropShadow dx="5.906" dy="8.069" flood-color="#000" flood-opacity=".333" in="SourceGraphic" result="Shadow" stdDeviation="10"/></filter><filter id="k" width="114.567" height="499.161" x="698.471" y="437.329" filterUnits="userSpaceOnUse"><feDropShadow dx="5.906" dy="8.069" flood-color="#000" flood-opacity=".333" in="SourceGraphic" result="Shadow" stdDeviation="10"/></filter><filter id="l" width="108.778" height="332.446" x="802.637" y="534.256" filterUnits="userSpaceOnUse"><feDropShadow dx="-5.28" dy="8.492" flood-color="#000" flood-opacity=".333" in="SourceGraphic" result="Shadow" stdDeviation="10"/></filter><filter id="m" width="321.345" height="110.826" x="600.185" y="423.251" filterUnits="userSpaceOnUse"><feDropShadow dx="5.906" dy="8.069" flood-color="#000" flood-opacity=".333" in="SourceGraphic" result="Shadow" stdDeviation="10"/></filter><filter id="n" width="330.549" height="111.124" x="592.052" y="529.998" filterUnits="userSpaceOnUse"><feDropShadow dx="5.906" dy="8.069" flood-color="#000" flood-opacity=".333" in="SourceGraphic" result="Shadow" stdDeviation="10"/></filter><filter id="o" width="145.667" height="109.12" x="775.781" y="758.294" filterUnits="userSpaceOnUse"><feDropShadow dx="5.823" dy="8.13" flood-color="#000" flood-opacity=".333" in="SourceGraphic" result="Shadow" stdDeviation="10"/></filter><filter id="p" width="112.185" height="229.516" x="482.605" y="148.995" filterUnits="userSpaceOnUse"><feDropShadow dx="-5.28" dy="8.492" flood-color="#000" flood-opacity=".333" in="SourceGraphic" result="Shadow" stdDeviation="10"/></filter><filter id="q" width="115.144" height="86.688" x="498.579" y="691.709" filterUnits="userSpaceOnUse"><feDropShadow dx="-7.699" dy="-6.381" flood-color="#000" flood-opacity=".333" in="SourceGraphic" result="Shadow" stdDeviation="10"/></filter><filter id="r" width="109.909" height="251.76" x="582.772" y="138.24" filterUnits="userSpaceOnUse"><feDropShadow dx="-5.28" dy="8.492" flood-color="#000" flood-opacity=".333" in="SourceGraphic" result="Shadow" stdDeviation="10"/></filter><filter id="s" width="109.783" height="253.569" x="703.079" y="136.969" filterUnits="userSpaceOnUse"><feDropShadow dx="-5.28" dy="8.492" flood-color="#000" flood-opacity=".333" in="SourceGraphic" result="Shadow" stdDeviation="10"/></filter><filter id="t" width="231.724" height="111.361" x="582.953" y="136.969" filterUnits="userSpaceOnUse"><feDropShadow dx="-5.28" dy="8.492" flood-color="#000" flood-opacity=".333" in="SourceGraphic" result="Shadow" stdDeviation="10"/></filter><filter id="u" width="458.381" height="108.633" x="78.298" y="340.546" filterUnits="userSpaceOnUse"><feDropShadow dx="5.906" dy="8.069" flood-color="#000" flood-opacity=".333" in="SourceGraphic" result="Shadow" stdDeviation="10"/></filter><filter id="v" width="198.381" height="157.153" x="345.392" y="597.812" filterUnits="userSpaceOnUse"><feDropShadow dx="5.906" dy="8.069" flood-color="#000" flood-opacity=".333" in="SourceGraphic" result="Shadow" stdDeviation="10"/></filter><filter id="w" width="198.381" height="157.153" x="71.471" y="597.812" filterUnits="userSpaceOnUse"><feDropShadow dx="5.906" dy="8.069" flood-color="#000" flood-opacity=".333" in="SourceGraphic" result="Shadow" stdDeviation="10"/></filter></defs><clipPath id="a"><path d="M0 0h1024v1024H0z"/></clipPath><g clip-path="url(#a)"><path fill="#41c98b" d="M0 512C0 229.23 229.23 0 512 0s512 229.23 512 512-229.23 512-512 512S0 794.77 0 512Z"/></g><path fill="#fff" d="m512.885 84.545.587 59.838 60.232 32.179.78-49.192" filter="url(#b)"/><path fill="#fff" d="m242.758 299.89 68.196.633-160.898 275.374-34.856-61.303" filter="url(#c)"/><path fill="#f6f6f6" d="m448.88 512.625 62.812 61.913.448 122.608-62.672 25.862" filter="url(#d)"/><path fill="#fff" d="m278.35 468.342 63.003-28.16 2.205 278.766-63.945 33.37-1.263-283.976Z" filter="url(#e)"/><path fill="#fff" d="m114.497 514.243 33.889 58.791 362.948.44-59.822-59.771-337.015.54Z" filter="url(#f)"/><path fill="#fff" d="m277.417 752.232-83.836-51.525 65.867-33.596 84.81 51.575-66.841 33.546Z" filter="url(#g)"/><path fill="#fff" d="m537.861 423.179 60.293 49.984-1.552 284.875-56.094-13.062" filter="url(#h)"/><path fill="#fff" d="M541.548 743.616 455.287 858.9l44.768 32.901 96.367-134.165" filter="url(#i)"/><path fill="#fff" d="m672.516 546.928-61.021 61.043 1.803 238.138 55.358-40.31" filter="url(#j)"/><path fill="#fff" d="m781.252 454.259-61.679 44.929-2.009 404.233 64.567-32.938" filter="url(#k)"/><path fill="#fff" d="m832.918 550.763 58.777 58.346-1.07 182.717-54.821 41.384" filter="url(#l)"/><path fill="#fff" d="m659.154 440.182-39.875 60.299 233.154.527 38.192-60.826" filter="url(#m)"/><path fill="#fff" d="m672.682 546.928-61.536 61.124 280.549-.063-59.642-58.778" filter="url(#n)"/><path fill="#fff" d="m837.417 834.285 53.208-41.384-95.667-17.736 4.837 54.282" filter="url(#o)"/><path fill="#fff" d="m513.472 165.503 61.599 35.786-.587 143.73-61.599-29.919.587-149.597Z" filter="url(#p)"/><path fill="#fff" d="m596.422 759.778-55.873-36.688-9.271 34.51 65.144 2.178Z" filter="url(#q)"/><path fill="#fff" d="M613.052 214.293v100.641l59.909 41.573v-201.76l-59.909 59.546Z" filter="url(#r)"/><path fill="#fff" d="m733.359 153.477.587 203.569 58.833-43.746.363-98.644-59.783-61.179Z" filter="url(#s)"/><path fill="#fff" d="m673.143 153.477-59.909 60.635 181.724.726-59.579-60.09" filter="url(#t)"/><path fill="#fff" d="m97.392 357.477 367.609.42 40.772 57.119-372.68 1.094" filter="url(#u)"/><path fill="#f6f6f6" d="m428.073 614.743-63.588 24.198 85.757 82.955 62.625-24.667" filter="url(#v)"/><path fill="#f6f6f6" d="m175.358 614.743 63.588 24.198-85.757 82.955-62.625-24.667" filter="url(#w)"/></svg>