<svg xmlns="http://www.w3.org/2000/svg" xml:space="preserve" stroke-miterlimit="10" style="fill-rule:nonzero;clip-rule:evenodd;stroke-linecap:round;stroke-linejoin:round" viewBox="0 0 1024 1024"><defs><filter id="b" width="101.599" height="132.017" x="487.605" y="73.037" color-interpolation-filters="sRGB" filterUnits="userSpaceOnUse"><feDropShadow dx="-5.28" dy="8.492" flood-color="#000" flood-opacity=".333" in="SourceGraphic" result="Shadow" stdDeviation="10"/></filter><filter id="c" width="235.754" height="316.007" x="101.106" y="287.959" color-interpolation-filters="sRGB" filterUnits="userSpaceOnUse"><feDropShadow dx="5.906" dy="8.069" flood-color="#000" flood-opacity=".333" in="SourceGraphic" result="Shadow" stdDeviation="10"/></filter><filter id="d" width="103.26" height="250.383" x="423.12" y="500.799" color-interpolation-filters="sRGB" filterUnits="userSpaceOnUse"><feDropShadow dx="-5.76" dy="8.175" flood-color="#000" flood-opacity=".333" in="SourceGraphic" result="Shadow" stdDeviation="10"/></filter><filter id="e" width="105.208" height="352.136" x="257.656" y="420.569" color-interpolation-filters="sRGB" filterUnits="userSpaceOnUse"><feDropShadow dx="-.694" dy=".387" flood-color="#000" flood-opacity=".333" in="SourceGraphic" result="Shadow" stdDeviation="10"/></filter><filter id="f" width="436.837" height="99.771" x="100.337" y="501.821" color-interpolation-filters="sRGB" filterUnits="userSpaceOnUse"><feDropShadow dx="5.84" dy="8.117" flood-color="#000" flood-opacity=".333" in="SourceGraphic" result="Shadow" stdDeviation="10"/></filter><filter id="g" width="190.677" height="125.121" x="182.703" y="643.013" color-interpolation-filters="sRGB" filterUnits="userSpaceOnUse"><feDropShadow dx="9.122" dy="-4.099" flood-color="#000" flood-opacity=".333" in="SourceGraphic" result="Shadow" stdDeviation="10"/></filter><filter id="h" width="100.293" height="374.859" x="523.767" y="411.248" color-interpolation-filters="sRGB" filterUnits="userSpaceOnUse"><feDropShadow dx="5.906" dy="8.069" flood-color="#000" flood-opacity=".333" in="SourceGraphic" result="Shadow" stdDeviation="10"/></filter><filter id="i" width="181.134" height="188.186" x="441.194" y="731.685" color-interpolation-filters="sRGB" filterUnits="userSpaceOnUse"><feDropShadow dx="5.906" dy="8.069" flood-color="#000" flood-opacity=".333" in="SourceGraphic" result="Shadow" stdDeviation="10"/></filter><filter id="j" width="101.021" height="339.18" x="597.402" y="534.998" color-interpolation-filters="sRGB" filterUnits="userSpaceOnUse"><feDropShadow dx="5.906" dy="8.069" flood-color="#000" flood-opacity=".333" in="SourceGraphic" result="Shadow" stdDeviation="10"/></filter><filter id="k" width="104.567" height="489.161" x="703.471" y="442.329" color-interpolation-filters="sRGB" filterUnits="userSpaceOnUse"><feDropShadow dx="5.906" dy="8.069" flood-color="#000" flood-opacity=".333" in="SourceGraphic" result="Shadow" stdDeviation="10"/></filter><filter id="l" width="98.778" height="322.446" x="807.637" y="539.256" color-interpolation-filters="sRGB" filterUnits="userSpaceOnUse"><feDropShadow dx="-5.28" dy="8.492" flood-color="#000" flood-opacity=".333" in="SourceGraphic" result="Shadow" stdDeviation="10"/></filter><filter id="m" width="311.345" height="100.826" x="605.185" y="428.251" color-interpolation-filters="sRGB" filterUnits="userSpaceOnUse"><feDropShadow dx="5.906" dy="8.069" flood-color="#000" flood-opacity=".333" in="SourceGraphic" result="Shadow" stdDeviation="10"/></filter><filter id="n" width="320.549" height="101.124" x="597.052" y="534.998" color-interpolation-filters="sRGB" filterUnits="userSpaceOnUse"><feDropShadow dx="5.906" dy="8.069" flood-color="#000" flood-opacity=".333" in="SourceGraphic" result="Shadow" stdDeviation="10"/></filter><filter id="o" width="135.667" height="99.12" x="780.781" y="763.294" color-interpolation-filters="sRGB" filterUnits="userSpaceOnUse"><feDropShadow dx="5.823" dy="8.13" flood-color="#000" flood-opacity=".333" in="SourceGraphic" result="Shadow" stdDeviation="10"/></filter><filter id="p" width="102.185" height="219.516" x="487.605" y="153.995" color-interpolation-filters="sRGB" filterUnits="userSpaceOnUse"><feDropShadow dx="-5.28" dy="8.492" flood-color="#000" flood-opacity=".333" in="SourceGraphic" result="Shadow" stdDeviation="10"/></filter><filter id="q" width="105.144" height="76.688" x="503.579" y="696.709" color-interpolation-filters="sRGB" filterUnits="userSpaceOnUse"><feDropShadow dx="-7.699" dy="-6.381" flood-color="#000" flood-opacity=".333" in="SourceGraphic" result="Shadow" stdDeviation="10"/></filter><filter id="r" width="99.909" height="241.76" x="587.772" y="143.24" color-interpolation-filters="sRGB" filterUnits="userSpaceOnUse"><feDropShadow dx="-5.28" dy="8.492" flood-color="#000" flood-opacity=".333" in="SourceGraphic" result="Shadow" stdDeviation="10"/></filter><filter id="s" width="99.783" height="243.569" x="708.079" y="141.969" color-interpolation-filters="sRGB" filterUnits="userSpaceOnUse"><feDropShadow dx="-5.28" dy="8.492" flood-color="#000" flood-opacity=".333" in="SourceGraphic" result="Shadow" stdDeviation="10"/></filter><filter id="t" width="221.724" height="101.361" x="587.953" y="141.969" color-interpolation-filters="sRGB" filterUnits="userSpaceOnUse"><feDropShadow dx="-5.28" dy="8.492" flood-color="#000" flood-opacity=".333" in="SourceGraphic" result="Shadow" stdDeviation="10"/></filter><filter id="u" width="448.381" height="98.633" x="83.298" y="345.546" color-interpolation-filters="sRGB" filterUnits="userSpaceOnUse"><feDropShadow dx="5.906" dy="8.069" flood-color="#000" flood-opacity=".333" in="SourceGraphic" result="Shadow" stdDeviation="10"/></filter><filter id="v" width="188.381" height="147.153" x="350.392" y="602.812" color-interpolation-filters="sRGB" filterUnits="userSpaceOnUse"><feDropShadow dx="5.906" dy="8.069" flood-color="#000" flood-opacity=".333" in="SourceGraphic" result="Shadow" stdDeviation="10"/></filter><filter id="w" width="188.381" height="147.153" x="76.471" y="602.812" color-interpolation-filters="sRGB" filterUnits="userSpaceOnUse"><feDropShadow dx="5.906" dy="8.069" flood-color="#000" flood-opacity=".333" in="SourceGraphic" result="Shadow" stdDeviation="10"/></filter></defs><clipPath id="a"><path d="M0 0h1024v1024H0z"/></clipPath><g clip-path="url(#a)"><path fill="#41c98b" d="M0 512C0 229.23 229.23 0 512 0s512 229.23 512 512-229.23 512-512 512S0 794.77 0 512Z"/></g><path fill="#fff" d="m512.885 84.545.587 59.838 60.232 32.179.78-49.192" filter="url(#b)"/><path fill="#fff" d="m242.758 299.89 68.196.633-160.898 275.374-34.856-61.303" filter="url(#c)"/><path fill="#f6f6f6" d="m448.88 512.625 62.812 61.913.448 122.608-62.672 25.862" filter="url(#d)"/><path fill="#fff" d="m278.35 468.342 63.003-28.16 2.205 278.766-63.945 33.37-1.263-283.976Z" filter="url(#e)"/><path fill="#fff" d="m114.497 514.243 33.889 58.791 362.948.44-59.822-59.771-337.015.54Z" filter="url(#f)"/><path fill="#fff" d="m277.417 752.232-83.836-51.525 65.867-33.596 84.81 51.575-66.841 33.546Z" filter="url(#g)"/><path fill="#fff" d="m537.861 423.179 60.293 49.984-1.552 284.875-56.094-13.062" filter="url(#h)"/><path fill="#fff" d="M541.548 743.616 455.287 858.9l44.768 32.901 96.367-134.165" filter="url(#i)"/><path fill="#fff" d="m672.516 546.928-61.021 61.043 1.803 238.138 55.358-40.31" filter="url(#j)"/><path fill="#fff" d="m781.252 454.259-61.679 44.929-2.009 404.233 64.567-32.938" filter="url(#k)"/><path fill="#fff" d="m832.918 550.763 58.777 58.346-1.07 182.717-54.821 41.384" filter="url(#l)"/><path fill="#fff" d="m659.154 440.182-39.875 60.299 233.154.527 38.192-60.826" filter="url(#m)"/><path fill="#fff" d="m672.682 546.928-61.536 61.124 280.549-.063-59.642-58.778" filter="url(#n)"/><path fill="#fff" d="m837.417 834.285 53.208-41.384-95.667-17.736 4.837 54.282" filter="url(#o)"/><path fill="#fff" d="m513.472 165.503 61.599 35.786-.587 143.73-61.599-29.919.587-149.597Z" filter="url(#p)"/><path fill="#fff" d="m596.422 759.778-55.873-36.688-9.271 34.51 65.144 2.178Z" filter="url(#q)"/><path fill="#fff" d="M613.052 214.293v100.641l59.909 41.573v-201.76l-59.909 59.546Z" filter="url(#r)"/><path fill="#fff" d="m733.359 153.477.587 203.569 58.833-43.746.363-98.644-59.783-61.179Z" filter="url(#s)"/><path fill="#fff" d="m673.143 153.477-59.909 60.635 181.724.726-59.579-60.09" filter="url(#t)"/><path fill="#fff" d="m97.392 357.477 367.609.42 40.772 57.119-372.68 1.094" filter="url(#u)"/><path fill="#f6f6f6" d="m428.073 614.743-63.588 24.198 85.757 82.955 62.625-24.667" filter="url(#v)"/><path fill="#f6f6f6" d="m175.358 614.743 63.588 24.198-85.757 82.955-62.625-24.667" filter="url(#w)"/></svg>