<svg xmlns="http://www.w3.org/2000/svg" xmlns:vectornator="http://vectornator.io" xml:space="preserve" stroke-miterlimit="10" style="fill-rule:nonzero;clip-rule:evenodd;stroke-linecap:round;stroke-linejoin:round" viewBox="0 0 2000 1600"><defs><filter id="b" width="2045.64" height="1650" x="-14.734" y="-16.931" color-interpolation-filters="sRGB" filterUnits="userSpaceOnUse"><feDropShadow dx="5.906" dy="8.069" flood-color="#000" flood-opacity=".333" in="SourceGraphic" result="Shadow" stdDeviation="10"/></filter><filter id="c" width="992.08" height="353.68" x="113.827" y="425.389" color-interpolation-filters="sRGB" filterUnits="userSpaceOnUse"><feDropShadow dx="5.906" dy="8.069" flood-color="#000" flood-opacity=".333" in="SourceGraphic" result="Shadow" stdDeviation="10"/></filter><filter id="d" width="106" height="153.68" x="1089.77" y="664.289" color-interpolation-filters="sRGB" filterUnits="userSpaceOnUse"><feDropShadow dx="5.906" dy="8.069" flood-color="#000" flood-opacity=".333" in="SourceGraphic" result="Shadow" stdDeviation="10"/></filter><filter id="e" width="649.04" height="350.48" x="526.899" y="878.229" color-interpolation-filters="sRGB" filterUnits="userSpaceOnUse"><feDropShadow dx="5.906" dy="8.069" flood-color="#000" flood-opacity=".333" in="SourceGraphic" result="Shadow" stdDeviation="10"/></filter><filter id="f" width="88.14" height="112.164" x="1433.54" y="763.04" color-interpolation-filters="sRGB" filterUnits="userSpaceOnUse"><feDropShadow dx="-4.17" dy="6.707" flood-color="#000" flood-opacity=".333" in="SourceGraphic" result="Shadow" stdDeviation="7.898"/></filter><filter id="g" width="88.603" height="181.27" x="1433.54" y="826.98" color-interpolation-filters="sRGB" filterUnits="userSpaceOnUse"><feDropShadow dx="-4.17" dy="6.707" flood-color="#000" flood-opacity=".333" in="SourceGraphic" result="Shadow" stdDeviation="7.898"/></filter><filter id="h" width="86.805" height="198.838" x="1512.65" y="818.485" color-interpolation-filters="sRGB" filterUnits="userSpaceOnUse"><feDropShadow dx="-4.17" dy="6.707" flood-color="#000" flood-opacity=".333" in="SourceGraphic" result="Shadow" stdDeviation="7.898"/></filter><filter id="i" width="86.706" height="200.267" x="1607.67" y="817.482" color-interpolation-filters="sRGB" filterUnits="userSpaceOnUse"><feDropShadow dx="-4.17" dy="6.707" flood-color="#000" flood-opacity=".333" in="SourceGraphic" result="Shadow" stdDeviation="7.898"/></filter><filter id="j" width="183.014" height="87.952" x="1512.8" y="817.482" color-interpolation-filters="sRGB" filterUnits="userSpaceOnUse"><feDropShadow dx="-4.17" dy="6.707" flood-color="#000" flood-opacity=".333" in="SourceGraphic" result="Shadow" stdDeviation="7.898"/></filter><filter id="k" width="193.985" height="242.511" x="1205.39" y="1029.26" color-interpolation-filters="sRGB" filterUnits="userSpaceOnUse"><feDropShadow dx="4.068" dy="5.557" flood-color="#000" flood-opacity=".333" in="SourceGraphic" result="Shadow" stdDeviation="6.887"/></filter><filter id="l" width="80.696" height="247.709" x="1203.1" y="1027.4" color-interpolation-filters="sRGB" filterUnits="userSpaceOnUse"><feDropShadow dx="4.717" dy="6.445" flood-color="#000" flood-opacity=".333" in="SourceGraphic" result="Shadow" stdDeviation="7.987"/></filter><filter id="m" width="80.769" height="256.218" x="1323.76" y="1019.19" color-interpolation-filters="sRGB" filterUnits="userSpaceOnUse"><feDropShadow dx="4.717" dy="6.445" flood-color="#000" flood-opacity=".333" in="SourceGraphic" result="Shadow" stdDeviation="7.987"/></filter><filter id="n" width="193.985" height="242.511" x="1555.15" y="1029.26" color-interpolation-filters="sRGB" filterUnits="userSpaceOnUse"><feDropShadow dx="4.068" dy="5.557" flood-color="#000" flood-opacity=".333" in="SourceGraphic" result="Shadow" stdDeviation="6.887"/></filter><filter id="o" width="80.696" height="247.709" x="1552.87" y="1027.4" color-interpolation-filters="sRGB" filterUnits="userSpaceOnUse"><feDropShadow dx="4.717" dy="6.445" flood-color="#000" flood-opacity=".333" in="SourceGraphic" result="Shadow" stdDeviation="7.987"/></filter><filter id="p" width="80.769" height="256.218" x="1673.53" y="1019.19" color-interpolation-filters="sRGB" filterUnits="userSpaceOnUse"><feDropShadow dx="4.717" dy="6.445" flood-color="#000" flood-opacity=".333" in="SourceGraphic" result="Shadow" stdDeviation="7.987"/></filter><filter id="q" width="175.559" height="76.957" x="1386.56" y="1019.19" color-interpolation-filters="sRGB" filterUnits="userSpaceOnUse"><feDropShadow dx="4.717" dy="6.445" flood-color="#000" flood-opacity=".333" in="SourceGraphic" result="Shadow" stdDeviation="7.987"/></filter><filter id="r" width="184.278" height="74.9" x="1386.56" y="1110.28" color-interpolation-filters="sRGB" filterUnits="userSpaceOnUse"><feDropShadow dx="4.717" dy="6.445" flood-color="#000" flood-opacity=".333" in="SourceGraphic" result="Shadow" stdDeviation="7.987"/></filter><filter id="s" width="184.278" height="75.591" x="1386.56" y="1199.82" color-interpolation-filters="sRGB" filterUnits="userSpaceOnUse"><feDropShadow dx="4.717" dy="6.445" flood-color="#000" flood-opacity=".333" in="SourceGraphic" result="Shadow" stdDeviation="7.987"/></filter><filter id="t" width="83.819" height="256.218" x="1386.56" y="1019.19" color-interpolation-filters="sRGB" filterUnits="userSpaceOnUse"><feDropShadow dx="4.717" dy="6.445" flood-color="#000" flood-opacity=".333" in="SourceGraphic" result="Shadow" stdDeviation="7.987"/></filter><filter id="u" width="201.432" height="82.834" x="1727.75" y="1192.58" color-interpolation-filters="sRGB" filterUnits="userSpaceOnUse"><feDropShadow dx="4.717" dy="6.445" flood-color="#000" flood-opacity=".333" in="SourceGraphic" result="Shadow" stdDeviation="7.987"/></filter><filter id="v" width="86.315" height="256.218" x="1727.75" y="1019.19" color-interpolation-filters="sRGB" filterUnits="userSpaceOnUse"><feDropShadow dx="4.717" dy="6.445" flood-color="#000" flood-opacity=".333" in="SourceGraphic" result="Shadow" stdDeviation="7.987"/></filter><filter id="w" width="86.019" height="256.218" x="1843.17" y="1019.19" color-interpolation-filters="sRGB" filterUnits="userSpaceOnUse"><feDropShadow dx="4.717" dy="6.445" flood-color="#000" flood-opacity=".333" in="SourceGraphic" result="Shadow" stdDeviation="7.987"/></filter></defs><clipPath id="a"><path d="M0 0h2000v1600H0z"/></clipPath><g vectornator:layerName="图层 3" clip-path="url(#a)"><path vectornator:shadowAngle=".939" vectornator:shadowColor="#000000" vectornator:shadowOffset="10" vectornator:shadowOpacity=".333" vectornator:shadowRadius="20" fill="#41c98b" d="M4.36 0H2000v1600H4.36V0Z" filter="url(#b)"/></g><g vectornator:layerName="图层 1"><g vectornator:shadowAngle=".939" vectornator:shadowColor="#000000" vectornator:shadowOffset="10" vectornator:shadowOpacity=".333" vectornator:shadowRadius="20" fill="#fff" filter="url(#c)"><path d="M245.24 515.28h-75.2c-5.76 0-10.24.747-13.44 2.24l-6.4-13.76c4.48 1.067 9.814 1.6 16 1.6h82.88c6.4-16.213 13.227-36.8 20.48-61.76 26.027 10.027 39.04 17.28 39.04 21.76 0 1.707-1.44 2.56-4.32 2.56-2.88 0-5.066.747-6.56 2.24-1.493 1.493-3.68 5.013-6.56 10.56-2.88 5.547-6.773 13.76-11.68 24.64h100.16l14.72-22.08c1.28-2.133 2.667-3.2 4.16-3.2 2.347 0 9.334 4.747 20.96 14.24 11.627 9.493 17.44 15.36 17.44 17.6 0 2.24-2.56 3.36-7.68 3.36H274.68c-14.506 29.227-29.013 53.227-43.52 72V726.8c0 1.92-.373 3.253-1.12 4-.746.747-2.773 2.027-6.08 3.84-3.306 1.813-6.986 3.413-11.04 4.8-4.053 1.387-6.773 2.08-8.16 2.08-1.386 0-2.08-.853-2.08-2.56l.64-15.04c.427-10.453.64-19.947.64-28.48v-77.76c-18.133 17.92-40.533 35.2-67.2 51.84l-3.84-3.84c28.374-25.387 52.054-51.093 71.04-77.12 0-17.707-.213-29.44-.64-35.2 9.814 3.2 16.214 5.547 19.2 7.04 6.4-10.88 13.974-25.92 22.72-45.12Zm64.96 190.4v-96.64h-46.4c-5.76 0-10.24.747-13.44 2.24l-6.4-13.76c4.48 1.067 9.814 1.6 16 1.6h50.24v-36.48c0-16.427-.213-26.453-.64-30.08 9.6 1.92 18.4 4.427 26.4 7.52s12 5.493 12 7.2c0 1.707-3.52 4.053-10.56 7.04v44.8h32l9.6-17.28c1.707-3.2 4-4.8 6.88-4.8s9.44 4.213 19.68 12.64 15.36 13.76 15.36 16-2.666 3.36-8 3.36H337.4v96.64h45.12l13.44-19.2c1.92-2.56 3.84-3.84 5.76-3.84s6.294 2.56 13.12 7.68c6.827 5.12 12.48 9.707 16.96 13.76 4.48 4.053 6.72 6.72 6.72 8 0 2.347-2.453 3.52-7.36 3.52H253.24c-5.76 0-10.24.747-13.44 2.24l-5.76-13.76c4.48 1.067 9.814 1.6 16 1.6h60.16ZM751.16 501.52c4.48 5.333 3.414 8-3.2 8h-156.8c-6.826 11.733-14.506 24.533-23.04 38.4-8.533 13.867-17.706 28.373-27.52 43.52h63.36v-32.32c0-5.547-.053-10.293-.16-14.24a169.574 169.574 0 0 0-.8-12.32 749.347 749.347 0 0 1 21.12 4.8c7.04 1.707 11.947 3.093 14.72 4.16 3.627 1.28 5.28 2.987 4.96 5.12-.32 2.133-3.893 4.373-10.72 6.72v38.08h51.84l13.76-20.48c3.2-4.907 7.36-5.12 12.48-.64 1.92 1.707 4 3.68 6.24 5.92l6.72 6.72 6.24 6.24c1.92 1.92 3.307 3.413 4.16 4.48 4.267 5.333 2.667 8-4.8 8h-96.64v104c0 4.907-.48 9.227-1.44 12.96a23.556 23.556 0 0 1-5.28 9.92c-2.56 2.88-6.026 5.493-10.4 7.84-4.373 2.347-9.866 4.48-16.48 6.4-2.986.853-5.28 1.013-6.88.48-1.6-.533-2.613-2.187-3.04-4.96-.64-3.627-1.6-6.933-2.88-9.92-1.28-2.987-3.36-5.76-6.24-8.32-2.88-2.56-6.826-5.067-11.84-7.52-5.013-2.453-11.466-5.067-19.36-7.84v-6.08c12.374 2.987 22.187 5.067 29.44 6.24 7.254 1.173 12.747 1.44 16.48.8 3.734-.64 6.134-2.027 7.2-4.16 1.067-2.133 1.6-5.12 1.6-8.96v-90.88h-66.24c-4.693 8.96-9.493 11.627-14.4 8a80.814 80.814 0 0 1-11.68-9.92c-3.52-3.627-6.773-6.827-9.76-9.6 5.76-1.707 10.134-3.787 13.12-6.24 2.987-2.453 6.4-6.773 10.24-12.96 7.467-12.16 14.027-23.2 19.68-33.12 5.654-9.92 10.827-19.36 15.52-28.32h-78.08c-2.56 0-5.12.213-7.68.64-2.56.427-4.48.96-5.76 1.6L463.16 498c2.987.64 5.6 1.067 7.84 1.28 2.24.213 4.96.32 8.16.32h86.08a461.071 461.071 0 0 0 11.84-27.04c3.627-9.067 7.254-19.147 10.88-30.24 3.2 1.28 6.667 2.773 10.4 4.48a532.701 532.701 0 0 1 10.56 4.96c3.307 1.6 6.294 3.093 8.96 4.48 2.667 1.387 4.64 2.4 5.92 3.04 3.2 1.707 4.534 3.307 4 4.8-.533 1.493-2.613 2.453-6.24 2.88-2.346.213-4.586 1.067-6.72 2.56-2.133 1.493-4.16 4.053-6.08 7.68a259.689 259.689 0 0 1-5.6 10.56 2075.068 2075.068 0 0 0-6.56 11.84h108.16l13.76-19.2c1.707-2.347 3.307-3.52 4.8-3.52 1.494 0 3.734 1.28 6.72 3.84 5.12 4.48 9.334 8.373 12.64 11.68 3.307 3.307 6.134 6.347 8.48 9.12Zm-169.28 136c1.28 1.28 2.08 2.56 2.4 3.84.32 1.28.32 2.453 0 3.52-.32 1.067-1.013 1.813-2.08 2.24-1.066.427-2.346.427-3.84 0-2.346-.64-4.693-.8-7.04-.48-2.346.32-3.946.907-4.8 1.76-9.173 9.387-17.76 17.707-25.76 24.96s-16.053 13.867-24.16 19.84c-8.106 5.973-16.64 11.68-25.6 17.12-8.96 5.44-18.986 11.04-30.08 16.8l-4.48-6.08c23.04-17.707 42.614-35.84 58.72-54.4 16.107-18.56 29.067-36.373 38.88-53.44a185.945 185.945 0 0 1 15.84 12.96c5.014 4.587 9.014 8.373 12 11.36Zm156.48 55.04c0 2.987-.426 6.24-1.28 9.76-.853 3.52-1.973 6.773-3.36 9.76-1.386 2.987-2.933 5.493-4.64 7.52-1.706 2.027-3.413 3.04-5.12 3.04-1.706 0-3.253-.8-4.64-2.4-1.386-1.6-3.786-5.6-7.2-12-6.826-12.8-15.466-26.293-25.92-40.48-10.453-14.187-23.253-28.107-38.4-41.76l3.2-5.12c16.854 8.96 30.88 16.96 42.08 24 11.2 7.04 20.16 13.333 26.88 18.88 6.72 5.547 11.467 10.613 14.24 15.2 2.774 4.587 4.16 9.12 4.16 13.6ZM850.04 448.4c6.827 1.707 14.08 3.893 21.76 6.56 7.68 2.667 12.854 4.64 15.52 5.92 2.667 1.28 4 2.507 4 3.68s-1.706 2.453-5.12 3.84c-3.413 1.387-5.546 2.88-6.4 4.48-.853 1.6-1.28 4.96-1.28 10.08l.96 43.84c.214 17.067.32 32.533.32 46.4 0 45.227-2.773 76.373-8.32 93.44-5.546 17.067-14.293 30.72-26.24 40.96-11.946 10.24-31.04 22.187-57.28 35.84l-2.88-4.8c21.334-15.787 36.48-29.067 45.44-39.84 8.96-10.773 15.094-24.267 18.4-40.48 3.307-16.213 4.96-40.533 4.96-72.96 0-57.6-1.28-103.253-3.84-136.96ZM931 530.96h28.16v-49.92H908.6c-5.333 0-9.92.533-13.76 1.6l-5.44-13.12c4.48 1.067 9.814 1.6 16 1.6h116.16l11.84-16.64c2.77-3.84 5.55-5.76 8.32-5.76 2.77 0 9.01 4.32 18.72 12.96 9.71 8.64 14.56 14.027 14.56 16.16 0 2.133-2.88 3.2-8.64 3.2h-79.68v49.92h32.96l7.04-11.2c1.07-1.707 2.4-2.56 4-2.56s7.25 2.827 16.96 8.48c9.71 5.653 14.56 9.44 14.56 11.36s-3.73 4.693-11.2 8.32v112c0 11.947-.75 19.947-2.24 24-1.49 4.053-6.19 8.267-14.08 12.64-7.89 4.373-13.33 6.56-16.32 6.56s-4.69-1.813-5.12-5.44c-.64-7.68-2.83-13.173-6.56-16.48-3.73-3.307-9.546-6.987-17.44-11.04l1.28-5.12c12.16 2.56 20.27 3.84 24.32 3.84 4.05 0 6.56-.693 7.52-2.08s1.44-3.893 1.44-7.52V540.56h-37.12v158.4c0 7.04.214 14.507.64 22.4l.32 10.88c0 1.707-.96 3.2-2.88 4.48-1.92 1.28-6.133 3.147-12.64 5.6-6.506 2.453-10.453 3.68-11.84 3.68-1.386 0-2.08-.853-2.08-2.56l.64-14.72c.214-7.04.32-16.747.32-29.12V540.56h-29.12v145.92c0 2.133-1.066 4.053-3.2 5.76-2.133 1.707-5.866 3.733-11.2 6.08-5.333 2.347-8.693 3.52-10.08 3.52-1.386 0-2.08-1.173-2.08-3.52l.64-15.04c.427-10.453.64-19.84.64-28.16V545.68c0-10.667-.213-20.16-.64-28.48 5.547.853 14.507 5.44 26.88 13.76Zm-125.76-41.6c9.387 2.56 17.6 5.333 24.64 8.32 7.04 2.987 10.56 5.28 10.56 6.88 0 1.6-3.413 3.893-10.24 6.88v144.64c0 3.84-.32 6.08-.96 6.72-.64.64-2.4 1.92-5.28 3.84-2.88 1.92-6.293 3.733-10.24 5.44-3.946 1.707-6.4 2.56-7.36 2.56s-1.44-1.067-1.44-3.2l.64-17.92c.214-5.333.32-12.267.32-20.8V514.96c0-9.6-.213-18.133-.64-25.6Z"/></g><path vectornator:shadowAngle=".939" vectornator:shadowColor="#000000" vectornator:shadowOffset="10" vectornator:shadowOpacity=".333" vectornator:shadowRadius="20" fill="#fff" d="M1108.86 777.539c9.6-7.04 17.44-15.306 23.52-24.8 6.08-9.493 9.12-15.946 9.12-19.36 0-4.693-3.73-7.146-11.2-7.36-4.9-.426-9.01-2.72-12.32-6.88-3.3-4.16-4.96-9.066-4.96-14.72 0-5.653 2.19-10.933 6.56-15.84 4.38-4.906 10.46-7.36 18.24-7.36 7.79 0 14.24 3.68 19.36 11.04 5.12 7.36 7.68 15.627 7.68 24.8 0 12.374-4.32 24.64-12.96 36.8-8.64 12.16-21.06 22.507-37.28 31.04l-5.76-7.36Z" filter="url(#d)"/><g vectornator:shadowAngle=".939" vectornator:shadowColor="#000000" vectornator:shadowOffset="10" vectornator:shadowOpacity=".333" vectornator:shadowRadius="20" fill="#fafafa" filter="url(#e)"><path d="M609.352 980.6h51.2l5.12-8c1.28-1.92 2.72-2.88 4.32-2.88s6.187 2.88 13.76 8.64c7.574 5.76 11.36 8.96 11.36 9.6 0 .64-.106 1.173-.32 1.6 3.84.853 8.427 1.28 13.76 1.28h13.44l2.56-95.68c7.894 2.133 15.467 4.587 22.72 7.36 7.254 2.773 11.84 4.747 13.76 5.92s2.88 2.4 2.88 3.68c0 1.28-1.493 2.72-4.48 4.32-2.986 1.6-4.906 3.467-5.76 5.6-.853 2.133-1.76 11.147-2.72 27.04-.96 15.893-2.186 29.813-3.68 41.76h48l8.64-13.76c1.494-2.56 2.987-3.84 4.48-3.84 2.774 0 8.694 3.68 17.76 11.04 9.067 7.36 13.6 12.213 13.6 14.56 0 1.28-2.453 1.92-7.36 1.92h-50.88v152.64c0 3.41.96 5.55 2.88 6.4 1.92.85 6.934 1.28 15.04 1.28 4.694 0 8-1.01 9.92-3.04 1.92-2.03 3.627-7.04 5.12-15.04 1.494-8 3.627-22.77 6.4-44.32l7.36.32c-.426 19.63.16 32.53 1.76 38.72 1.6 6.19 5.387 11.63 11.36 16.32 2.56 1.92 3.84 3.79 3.84 5.6 0 1.81-2.186 6.4-6.56 13.76-4.373 7.36-10.346 11.31-17.92 11.84-7.573.53-16.693.8-27.36.8-10.666 0-18.613-.85-23.84-2.56-5.226-1.71-8.693-4.91-10.4-9.6-1.706-4.69-2.56-12.37-2.56-23.04v-150.08h-9.92c-4.693 64.21-12 106.99-21.92 128.32-9.92 21.33-33.333 43.52-70.24 66.56l-2.56-4.48c29.227-26.03 47.68-50.35 55.36-72.96 7.68-22.61 12.48-61.76 14.4-117.44h-10.24c-5.76 0-10.24.75-13.44 2.24l-4.8-11.84c-1.066 1.067-3.093 2.453-6.08 4.16v36.8c0 5.12.16 8.69.48 10.72.32 2.03.48 3.73.48 5.12 0 1.39-.853 2.56-2.56 3.52-1.706.96-5.013 2.24-9.92 3.84-4.906 1.6-8.426 2.4-10.56 2.4-2.133 0-3.2-1.81-3.2-5.44v-7.68h-14.08v98.24c0 8.96-1.066 15.73-3.2 20.32-2.133 4.59-6.346 9.07-12.64 13.44-6.293 4.37-10.453 6.56-12.48 6.56-2.026 0-3.68-1.49-4.96-4.48-2.56-5.97-5.813-10.51-9.76-13.6-3.946-3.09-11.68-6.77-23.2-11.04l.96-7.04c15.787 2.77 25.707 4.16 29.76 4.16 4.054 0 6.56-.64 7.52-1.92.96-1.28 1.44-3.52 1.44-6.72v-97.92h-15.36c0 4.05-.64 6.67-1.92 7.84-1.28 1.17-4.746 2.83-10.4 4.96-5.653 2.13-9.546 3.2-11.68 3.2-1.493 0-2.026-1.6-1.6-4.8.854-6.83 1.28-14.08 1.28-21.76v-40c0-8.96-.32-18.027-.96-27.2 13.654 5.333 23.254 9.92 28.8 13.76Zm52.48 54.72v-45.44h-56v45.44h56Zm-23.04-87.68h31.68l12.16-16.32c1.92-2.773 3.574-4.16 4.96-4.16 1.387 0 6.507 3.947 15.36 11.84 8.854 7.893 13.28 12.853 13.28 14.88 0 2.027-1.92 3.04-5.76 3.04h-142.72c-5.76 0-10.24.747-13.44 2.24l-5.44-13.12c4.48 1.067 9.814 1.6 16 1.6h60.48c-1.706-11.733-3.946-20.853-6.72-27.36-2.773-6.507-7.253-13.067-13.44-19.68l4.8-5.12c14.08 4.267 24.96 8.587 32.64 12.96 7.68 4.373 11.52 9.547 11.52 15.52 0 3.413-1.12 7.68-3.36 12.8-2.24 5.12-6.24 8.747-12 10.88Zm129.92-22.72c13.227 5.76 23.2 11.04 29.92 15.84 6.72 4.8 10.08 9.387 10.08 13.76 0 4.373-1.706 9.28-5.12 14.72-3.413 5.44-6.613 8.16-9.6 8.16-2.986 0-5.066-.853-6.24-2.56-1.173-1.707-2.293-4.48-3.36-8.32-2.773-9.6-9.706-21.333-20.8-35.2l5.12-6.4Zm-181.44 146.24c18.56 5.97 27.84 10.67 27.84 14.08 0 1.49-1.333 2.77-4 3.84-2.666 1.07-4.48 2.13-5.44 3.2-.96 1.07-2.506 3.52-4.64 7.36-11.093 20.27-28.053 40.75-50.88 61.44l-4.16-3.52c17.28-27.73 31.04-56.53 41.28-86.4Zm68.8 1.28c14.08 7.68 24.64 14.72 31.68 21.12 7.04 6.4 10.56 12.53 10.56 18.4 0 5.87-1.386 11.2-4.16 16-2.773 4.8-6.506 7.2-11.2 7.2-2.133 0-4.053-.96-5.76-2.88-1.706-1.92-2.88-4.48-3.52-7.68-1.706-10.88-4.213-19.79-7.52-26.72-3.306-6.93-7.84-13.81-13.6-20.64l3.52-4.8ZM942.792 911.48h156.158l6.4-10.24c1.92-2.987 3.74-4.48 5.44-4.48 1.71 0 6.56 2.187 14.56 6.56 8 4.373 13.28 7.627 15.84 9.76 2.56 2.133 3.84 4.16 3.84 6.08s-4.8 5.653-14.4 11.2v222.72c0 10.24-.85 17.28-2.56 21.12-1.7 3.84-6.34 8.05-13.92 12.64-7.57 4.59-12.64 6.88-15.2 6.88-2.56 0-4.26-2.03-5.12-6.08-3.2-13.87-17.38-24.32-42.56-31.36l.64-8c18.99 2.99 31.36 4.48 37.12 4.48 5.76 0 9.34-.59 10.72-1.76 1.39-1.17 2.08-3.25 2.08-6.24v-79.04h-70.08v72c0 10.88.11 18.35.32 22.4l.32 11.52c0 2.99-3.84 5.81-11.52 8.48-7.68 2.67-13.01 4-16 4-1.7 0-2.56-1.07-2.56-3.2l.64-13.12c.22-8.96.32-18.77.32-29.44v-72.64h-63.678c-1.28 27.95-5.866 51.04-13.76 69.28-7.893 18.24-22.72 38.45-44.48 60.64l-5.44-4.48c18.347-23.89 29.014-53.76 32-89.6 2.987-35.84 4.48-73.92 4.48-114.24 0-18.987-1.066-49.067-3.2-90.24 9.814 2.987 21.014 7.787 33.6 14.4Zm-1.28 75.84h61.758v-64.96h-61.118c0 14.293-.213 35.947-.64 64.96Zm90.238 0h70.08v-64.96h-70.08v64.96Zm-28.48 10.24h-62.078c.427 23.68 0 42.99-1.28 57.92h63.358v-57.92Zm98.56 0h-70.08v57.92h70.08v-57.92Z"/></g><g vectornator:layerName="成组 9" fill="#fff"><path vectornator:shadowAngle="2.127" vectornator:shadowColor="#000000" vectornator:shadowOffset="7.898" vectornator:shadowOpacity=".333" vectornator:shadowRadius="15.796" d="m1457.46 776.078.46 47.26 47.57 25.414.62-38.851" filter="url(#f)"/><path vectornator:shadowAngle="2.127" vectornator:shadowColor="#000000" vectornator:shadowOffset="7.898" vectornator:shadowOpacity=".333" vectornator:shadowRadius="15.796" d="m1457.92 840.018 48.65 28.263-.46 113.517-48.65-23.63.46-118.15Z" filter="url(#g)"/><path vectornator:shadowAngle="2.127" vectornator:shadowColor="#000000" vectornator:shadowOffset="7.898" vectornator:shadowOpacity=".333" vectornator:shadowRadius="15.796" d="M1536.57 878.552v79.485l47.31 32.834V831.523l-47.31 47.029Z" filter="url(#h)"/><path vectornator:shadowAngle="2.127" vectornator:shadowColor="#000000" vectornator:shadowOffset="7.898" vectornator:shadowOpacity=".333" vectornator:shadowRadius="15.796" d="m1631.58 830.519.47 160.778 46.46-34.55.29-77.908-47.22-48.32Z" filter="url(#i)"/><path vectornator:shadowAngle="2.127" vectornator:shadowColor="#000000" vectornator:shadowOffset="7.898" vectornator:shadowOpacity=".333" vectornator:shadowRadius="15.796" d="m1584.03 830.519-47.32 47.89 143.52.573-47.05-47.458" filter="url(#j)"/></g><g vectornator:layerName="成组 10" fill="#fff"><g vectornator:layerName="成组 3"><path vectornator:shadowAngle=".939" vectornator:shadowColor="#000000" vectornator:shadowOffset="6.887" vectornator:shadowOpacity=".333" vectornator:shadowRadius="13.773" d="m1218.53 1055.07 40.58-14.15L1378.09 1230l-38.26 19" filter="url(#k)"/><path vectornator:shadowAngle=".939" vectornator:shadowColor="#000000" vectornator:shadowOffset="7.987" vectornator:shadowOpacity=".333" vectornator:shadowRadius="15.973" d="m1259.11 1040.92-1.7 189.91-39.06 17.87.17-191.09" filter="url(#l)"/><path vectornator:layerName="曲线 1" vectornator:shadowAngle=".939" vectornator:shadowColor="#000000" vectornator:shadowOffset="7.987" vectornator:shadowOpacity=".333" vectornator:shadowRadius="15.973" d="m1379.85 1032.72-.22 195.3-40.61 20.98-.01-198.69" filter="url(#m)"/></g><g vectornator:layerName="成组 7"><path vectornator:shadowAngle=".939" vectornator:shadowColor="#000000" vectornator:shadowOffset="6.887" vectornator:shadowOpacity=".333" vectornator:shadowRadius="13.773" d="m1568.3 1055.07 40.58-14.15L1727.85 1230l-38.25 19" filter="url(#n)"/><path vectornator:shadowAngle=".939" vectornator:shadowColor="#000000" vectornator:shadowOffset="7.987" vectornator:shadowOpacity=".333" vectornator:shadowRadius="15.973" d="m1608.88 1040.92-1.7 189.91-39.06 17.87.17-191.09" filter="url(#o)"/><path vectornator:layerName="曲线 1" vectornator:shadowAngle=".939" vectornator:shadowColor="#000000" vectornator:shadowOffset="7.987" vectornator:shadowOpacity=".333" vectornator:shadowRadius="15.973" d="m1729.62 1032.72-.22 195.3-40.61 20.98-.01-198.69" filter="url(#p)"/></g><g vectornator:layerName="成组 5"><path vectornator:layerName="曲线 3" vectornator:shadowAngle=".939" vectornator:shadowColor="#000000" vectornator:shadowOffset="7.987" vectornator:shadowOpacity=".333" vectornator:shadowRadius="15.973" d="m1537.44 1069.57-135.63.17 39.41-37.02h57.8" filter="url(#q)"/><path vectornator:layerName="曲线 5" vectornator:shadowAngle=".939" vectornator:shadowColor="#000000" vectornator:shadowOffset="7.987" vectornator:shadowOpacity=".333" vectornator:shadowRadius="15.973" d="m1521 1158.09-119.19.68 22.65-34.25 121.7-.72" filter="url(#r)"/><path vectornator:layerName="曲线 4" vectornator:shadowAngle=".939" vectornator:shadowColor="#000000" vectornator:shadowOffset="7.987" vectornator:shadowOpacity=".333" vectornator:shadowRadius="15.973" d="m1401.81 1214.22 144.35-.88-41.09 35.66h-59.37" filter="url(#s)"/><path vectornator:layerName="曲线 2" vectornator:shadowAngle=".939" vectornator:shadowColor="#000000" vectornator:shadowOffset="7.987" vectornator:shadowOpacity=".333" vectornator:shadowRadius="15.973" d="m1444.15 1032.72 1.55 216.28-43.89-34.78v-144.48" filter="url(#t)"/></g><g vectornator:layerName="成组 6"><path vectornator:layerName="曲线 8" vectornator:shadowAngle=".939" vectornator:shadowColor="#000000" vectornator:shadowOffset="7.987" vectornator:shadowOpacity=".333" vectornator:shadowRadius="15.973" d="m1743 1206.18 161.5-.08-46.01 42.83s-49.51.05-66.43.07" filter="url(#u)"/><path vectornator:layerName="曲线 6" vectornator:shadowAngle=".939" vectornator:shadowColor="#000000" vectornator:shadowOffset="7.987" vectornator:shadowOpacity=".333" vectornator:shadowRadius="15.973" d="m1786.62 1032.72 2.76 216.28-46.38-42.67v-172.66" filter="url(#v)"/><path vectornator:layerName="曲线 7" vectornator:shadowAngle=".939" vectornator:shadowColor="#000000" vectornator:shadowOffset="7.987" vectornator:shadowOpacity=".333" vectornator:shadowRadius="15.973" d="m1859.53 1033.67-1.11 215.33 46.08-41.92v-174.36" filter="url(#w)"/></g></g></g></svg>